cl__1 = 1e+22;
Point(1) = {-31.875285, -34.95, 52, cl__1};
Point(2) = {-31.875285, -34.95, -2, cl__1};
Point(3) = {-31.875285, 34.95, 52, cl__1};
Point(4) = {-31.875285, 34.95, -2, cl__1};
Point(5) = {31.875285, -34.95, 52, cl__1};
Point(6) = {31.875285, -34.95, -2, cl__1};
Point(7) = {31.875285, 34.95, 52, cl__1};
Point(8) = {31.875285, 34.95, -2, cl__1};
Line(1) = {2, 1};
Line(2) = {1, 3};
Line(3) = {4, 3};
Line(4) = {2, 4};
Line(5) = {6, 5};
Line(6) = {5, 7};
Line(7) = {8, 7};
Line(8) = {6, 8};
Line(9) = {2, 6};
Line(10) = {1, 5};
Line(11) = {4, 8};
Line(12) = {3, 7};
Line Loop(1) = {1, 2, -3, -4};
Plane Surface(1) = {1};
Line Loop(2) = {5, 6, -7, -8};
Plane Surface(2) = {2};
Line Loop(3) = {9, 5, -10, -1};
Plane Surface(3) = {3};
Line Loop(4) = {11, 7, -12, -3};
Plane Surface(4) = {4};
Line Loop(5) = {4, 11, -8, -9};
Plane Surface(5) = {5};
Line Loop(6) = {2, 12, -6, -10};
Plane Surface(6) = {6};
Surface Loop(1) = {1, 2, 3, 4, 5, 6};
Volume(1) = {1};
